<?xml version="1.0" encoding="iso-8859-1"?>
<!-- Generator: Adobe Illustrator 19.0.0, SVG Export Plug-In . SVG Version: 6.00 Build 0)  -->
<svg version="1.1" id="Capa_1" xmlns="http://www.w3.org/2000/svg" xmlns:xlink="http://www.w3.org/1999/xlink" x="0px" y="0px"
	 viewBox="0 0 512 512" style="enable-background:new 0 0 512 512;" xml:space="preserve">
<rect x="349.87" y="17.07" style="fill:#679522;" width="93.87" height="51.2"/>
<polygon style="fill:#77A226;" points="349.867,17.067 443.733,17.067 443.733,34.133 358.4,59.733 "/>
<rect x="8.534" y="238.93" style="fill:#FD9133;" width="247.47" height="128"/>
<ellipse style="fill:#FDCA6A;" cx="256" cy="307.2" rx="102.4" ry="68.27"/>
<ellipse style="fill:#FD9133;" cx="256" cy="307.2" rx="59.733" ry="34.13"/>
<path style="fill:#E5E5E5;" d="M204.801,59.733v83.533c0,17.118,8.559,33.101,22.801,42.598l2.799,1.869v150.272
	c16.777,4.437,34.423,4.437,51.2,0V187.733l2.799-1.869c14.242-9.498,22.801-25.481,22.801-42.598V59.733H204.801z"/>
<polygon style="fill:#D6D6D6;" points="307.201,59.733 204.801,59.733 204.801,85.333 307.201,98.987 "/>
<g>
	<rect x="230.4" y="59.733" style="fill:#CFCFCF;" width="17.07" height="85.33"/>
	<rect x="264.53" y="59.733" style="fill:#CFCFCF;" width="17.07" height="85.33"/>
</g>
<path style="fill:#FD7B2F;" d="M345.6,85.333h-38.4L89.524,61.15c-7.245-0.811-12.723-6.929-12.723-14.217l0,0
	c0-7.287,5.478-13.406,12.723-14.217L307.201,8.533h38.4c21.205,0,38.4,17.195,38.4,38.4l0,0
	C384,68.139,366.805,85.333,345.6,85.333z"/>
<path style="fill:#F46B27;" d="M374.758,22.187c-10.684,17.357-29.602,27.93-49.98,27.947H77.201
	c1.348,5.914,6.289,10.334,12.322,11.017l217.677,24.182h38.4c21.103,0.119,38.306-16.879,38.426-37.982
	C384.077,38.118,380.783,29.184,374.758,22.187z"/>
<path style="fill:#FD9133;" d="M256,375.467v128c56.55,0,102.4-30.566,102.4-68.267v-128C358.4,344.9,312.55,375.467,256,375.467z"
	/>
<path style="fill:#FDB62F;" d="M256,375.467c-56.55,0-102.4-30.566-102.4-68.267v128c0,37.7,45.85,68.267,102.4,68.267h247.467v-128
	H256z"/>
<g>
	
		<rect x="430.721" y="388.531" transform="matrix(0.002 -1 1 0.002 54.3511 848.5917)" style="fill:#8C421C;" width="43.2" height="17.07"/>
	
		<rect x="388.111" y="388.501" transform="matrix(0.002 -1 1 0.002 11.8018 805.8972)" style="fill:#8C421C;" width="43.09" height="17.07"/>
	
		<rect x="345.486" y="388.508" transform="matrix(0.002 -1 1 0.002 -30.7846 763.2396)" style="fill:#8C421C;" width="43.01" height="17.07"/>
	
		<rect x="302.865" y="388.423" transform="matrix(0.002 -1 1 0.002 -73.2786 720.4899)" style="fill:#8C421C;" width="42.923" height="17.07"/>
	
		<rect x="260.234" y="388.34" transform="matrix(0.002 -1 1 0.002 -115.785 677.7327)" style="fill:#8C421C;" width="42.837" height="17.07"/>
	<path style="fill:#8C421C;" d="M247.467,418.236l0.077-43.051c-5.717-0.324-11.418-0.973-17.067-1.946l-0.077,44.962
		L247.467,418.236z"/>
	<path style="fill:#8C421C;" d="M187.734,409.6h17.067v-43.341c-5.726-2.193-11.255-4.855-16.546-7.962h-0.521V409.6z"/>
</g>
<g>
	<rect x="315.73" y="8.533" style="fill:#DB631D;" width="17.07" height="34.13"/>
	<rect x="281.6" y="34.13" style="fill:#DB631D;" width="17.07" height="25.6"/>
	<polygon style="fill:#DB631D;" points="247.467,51.2 247.467,15.172 230.4,17.067 230.4,51.2 	"/>
	<polygon style="fill:#DB631D;" points="170.668,42.667 170.668,70.161 187.734,72.055 187.734,42.667 	"/>
</g>
<path d="M503.467,366.933H366.934V307.2c0-33.613-31.241-62.908-76.8-72.994V192.29c16.051-11.153,25.617-29.474,25.6-49.024V93.867
	H345.6c14.003,0,27.273-6.255,36.173-17.067h61.961c4.71,0,8.533-3.823,8.533-8.533v-51.2c0-4.71-3.823-8.533-8.533-8.533h-71.236
	C364.629,2.978,355.234,0,345.6,0h-38.4c-0.316,0-0.623,0.017-0.939,0.051L88.576,24.243c-12.535,1.374-21.572,12.655-20.198,25.182
	c1.169,10.633,9.566,19.029,20.198,20.198l107.691,11.964v61.679c-0.017,19.55,9.549,37.871,25.6,49.024v38.11H8.534
	c-4.71,0-8.533,3.823-8.533,8.533v128c0,4.71,3.823,8.533,8.533,8.533h136.533V435.2c0,42.342,49.766,76.8,110.933,76.8h247.467
	c4.71,0,8.533-3.823,8.533-8.533v-128C512,370.756,508.177,366.933,503.467,366.933z M349.867,366.933h-24.294
	c9.071-4.983,17.271-11.401,24.294-18.995V366.933z M349.867,307.2c0,32.939-42.112,59.733-93.867,59.733
	s-93.867-26.795-93.867-59.733c0-24.636,24.098-46.601,59.733-55.518v18.543c-21.163,7.458-34.133,21.205-34.133,36.975
	c0,17.297,15.488,32.256,40.414,39.031l0,0c18.244,4.838,37.444,4.838,55.689,0l0,0c24.943-6.776,40.431-21.734,40.431-39.031
	c0-15.77-12.971-29.517-34.133-36.975v-18.543C325.77,260.599,349.867,282.564,349.867,307.2z M290.133,288.521
	c10.522,4.898,17.067,11.819,17.067,18.679s-6.545,13.781-17.067,18.679V288.521z M204.801,307.2
	c0-6.827,6.545-13.781,17.067-18.679v37.359C211.346,320.981,204.801,314.027,204.801,307.2z M390.716,59.733
	c0.162-0.563,0.299-1.135,0.435-1.707l44.049-12.577v14.285L390.716,59.733L390.716,59.733z M435.201,27.699l-43.23,12.348
	c-0.734-5.035-2.295-9.916-4.616-14.447h47.846V27.699z M85.334,46.933c-0.009-2.935,2.202-5.41,5.12-5.734L230.4,25.651V51.2
	h17.067V23.757l60.203-6.69h8.064v25.6H332.8v-25.6h12.8c16.495,0,29.867,13.372,29.867,29.867S362.095,76.8,345.6,76.8h-37.931
	L187.734,63.471V42.667h-17.067v18.91l-80.213-8.909C87.536,52.343,85.326,49.869,85.334,46.933z M213.333,143.266V85.333h16.597
	l0.469,0.051v59.682h17.067V87.279l17.067,1.903v55.885H281.6v-53.99l17.067,1.894v50.295c0.017,14.268-7.117,27.597-19.004,35.499
	l-2.799,1.869c-2.372,1.587-3.797,4.25-3.797,7.1v143.488c-11.281,2.099-22.852,2.099-34.133,0V187.733
	c0-2.85-1.425-5.513-3.797-7.1l-2.799-1.869C220.451,170.863,213.316,157.534,213.333,143.266z M17.068,358.4V247.467h169.19
	c-25.421,14.199-41.19,35.84-41.19,59.733v51.2L17.068,358.4L17.068,358.4z M494.934,494.933H256
	c-51.755,0-93.867-26.795-93.867-59.733v-87.262c7.373,7.927,16.026,14.566,25.6,19.627V409.6h17.067v-34.338
	c8.337,2.987,16.93,5.197,25.677,6.605l-0.077,36.335h17.067l0.068-34.534c2.807,0.145,5.606,0.299,8.465,0.299h17.135l-0.068,34.33
	h17.067L290.202,384h25.6l-0.068,34.381H332.8L332.868,384h25.6l-0.068,34.475h17.067L375.535,384h25.6l-0.068,34.56h17.067
	l0.068-34.56h25.6l-0.068,34.654H460.8L460.868,384h34.065V494.933z"/>
<rect x="281.6" y="34.13" width="17.07" height="25.6"/>
<g>
</g>
<g>
</g>
<g>
</g>
<g>
</g>
<g>
</g>
<g>
</g>
<g>
</g>
<g>
</g>
<g>
</g>
<g>
</g>
<g>
</g>
<g>
</g>
<g>
</g>
<g>
</g>
<g>
</g>
</svg>
